# xmcd
#
# Track frame offsets:
#	150
#	15505
#	31906
#	47519
#	63491
#	80392
#	97238
#	113269
#	131623
#	149101
#	162404
#	179843
#	195752
#	210323
#	225411
#	240074
#	256542
#
# Disc length: 3603 seconds
#
# Revision: 1
# Processed by: cddbd v1.5.2PL0 Copyright (c) Steve Scherf et al.
# Submitted via: audiograbber 1.83.01
#
DISCID=d00e1111
DTITLE=Luke Combs - This One's for You Too (Deluxe Edition)
DYEAR=2018
DGENRE=Country
TTITLE0=Out There
TTITLE1=Memories Are Made Of
TTITLE2=Lonely One
TTITLE3=Beer Can
TTITLE4=Hurricane
TTITLE5=One Number Away
TTITLE6=Don't Tempt Me
TTITLE7=When It Rains It Pours
TTITLE8=This One's for You
TTITLE9=Be Careful What You Wish For
TTITLE10=I Got Away with You
TTITLE11=Honky Tonk Highway
TTITLE12=Houston, We Got a Problem
TTITLE13=Must've Never Met You
TTITLE14=Beautiful Crazy
TTITLE15=A Long Way
TTITLE16=She Got the Best of Me
EXTD=
EXTT0=
EXTT1=
EXTT2=
EXTT3=
EXTT4=
EXTT5=
EXTT6=
EXTT7=
EXTT8=
EXTT9=
EXTT10=
EXTT11=
EXTT12=
EXTT13=
EXTT14=
EXTT15=
EXTT16=
PLAYORDER=
